<?xml version="1.0" encoding="UTF-8"?>
<!DOCTYPE svg PUBLIC "-//W3C//DTD SVG 1.1//EN" "http://www.w3.org/Graphics/SVG/1.1/DTD/svg11.dtd">
<svg xmlns="http://www.w3.org/2000/svg" version="1.1" width="1024px" height="1024px" style="shape-rendering:geometricPrecision; text-rendering:geometricPrecision; image-rendering:optimizeQuality; fill-rule:evenodd; clip-rule:evenodd" xmlns:xlink="http://www.w3.org/1999/xlink">
<g><path  fill="#000000" d="M 789.5,131.5 C 792.397,131.125 795.063,131.625 797.5,133C 796.486,148.984 789.82,161.984 777.5,172C 773.152,174.854 768.486,176.52 763.5,177C 767.835,167.988 773.169,159.655 779.5,152C 769.231,158.128 761.897,166.961 757.5,178.5C 751.131,157.403 758.131,142.57 778.5,134C 782.312,133.205 785.979,132.371 789.5,131.5 Z"/></g>
<g><path  fill="#000000" d="M 728.5,155.5 C 744.207,165.922 749.54,180.256 744.5,198.5C 741.953,191.736 739.12,185.07 736,178.5C 736.318,186.263 737.484,193.93 739.5,201.5C 739.167,201.833 738.833,202.167 738.5,202.5C 726.759,193.676 722.259,182.01 725,167.5C 725.554,163.277 726.721,159.277 728.5,155.5 Z"/></g>
<g><path  fill="#000000" d="M 681.5,579.5 C 653.769,607.378 620.769,626.544 582.5,637C 509.633,656.543 440.967,646.876 376.5,608C 326.054,573.679 292.887,526.845 277,467.5C 258.993,386.482 276.66,314.482 330,251.5C 374.979,203.381 430.479,177.548 496.5,174C 456.739,192.092 426.239,220.259 405,258.5C 376.335,311.477 369.669,367.143 385,425.5C 407.093,498.589 452.926,550.755 522.5,582C 575.827,601.938 628.827,601.105 681.5,579.5 Z M 376.5,236.5 C 380.423,235.96 382.756,237.627 383.5,241.5C 381.375,245.741 378.542,246.408 375,243.5C 374.167,240.829 374.667,238.496 376.5,236.5 Z M 355.5,281.5 C 361.643,282.026 362.976,284.86 359.5,290C 354.504,290.664 352.67,288.498 354,283.5C 354.717,282.956 355.217,282.289 355.5,281.5 Z M 325.5,301.5 C 327.819,306.26 330.819,310.76 334.5,315C 338.677,317.059 343.01,318.726 347.5,320C 336.285,321.382 329.285,327.548 326.5,338.5C 324.537,327.374 317.87,321.207 306.5,320C 317.389,318.276 323.722,312.109 325.5,301.5 Z M 315.5,388.5 C 334.919,387.758 347.085,396.758 352,415.5C 353.891,430.88 348.391,442.714 335.5,451C 319.351,457.754 305.851,454.254 295,440.5C 287.417,426.934 287.75,413.601 296,400.5C 301.253,394.298 307.753,390.298 315.5,388.5 Z M 327.5,500.5 C 334.225,500.204 335.891,502.871 332.5,508.5C 325.409,509.531 323.742,506.864 327.5,500.5 Z M 408.5,537.5 C 417.02,557.61 410.687,570.277 389.5,575.5C 382.624,574.819 376.291,572.653 370.5,569C 393.293,570.707 405.96,560.207 408.5,537.5 Z M 469.5,600.5 C 474.575,600.18 476.408,602.514 475,607.5C 471.055,610.28 468.555,609.28 467.5,604.5C 467.803,602.886 468.47,601.552 469.5,600.5 Z M 535.5,609.5 C 540.341,610.302 541.675,612.969 539.5,617.5C 533.375,619.877 531.209,617.877 533,611.5C 533.995,610.934 534.828,610.267 535.5,609.5 Z"/></g>
<g><path  fill="#000000" d="M 655.5,184.5 C 656.765,185.514 657.431,187.014 657.5,189C 657.22,192.952 656.387,196.785 655,200.5C 651.389,206.444 647.389,212.111 643,217.5C 639.446,223.94 636.446,230.607 634,237.5C 633.891,225.266 635.557,213.266 639,201.5C 643.36,194.641 648.86,188.974 655.5,184.5 Z"/></g>
<g><path  fill="#000000" d="M 559.5,186.5 C 569.198,192.367 576.698,200.367 582,210.5C 584.79,218.735 585.124,227.069 583,235.5C 569.843,205.667 568.343,206.167 578.5,237C 568.301,234.148 561.134,227.648 557,217.5C 553.04,206.684 553.874,196.351 559.5,186.5 Z"/></g>
<g><path  fill="#000000" d="M 542.5,570.5 C 555.043,561.898 568.71,555.398 583.5,551C 626.649,536.318 670.649,532.818 715.5,540.5C 716.487,537.232 716.82,533.898 716.5,530.5C 683.925,526.161 651.592,527.661 619.5,535C 610.141,537.506 600.808,540.006 591.5,542.5C 627.743,528.129 665.41,522.629 704.5,526C 708.272,526.406 711.939,527.239 715.5,528.5C 716.5,465.837 716.833,403.17 716.5,340.5C 712.833,340.5 709.167,340.5 705.5,340.5C 705.5,399.5 705.5,458.5 705.5,517.5C 653.968,512.839 605.968,523.672 561.5,550C 547.557,559.222 534.057,569.055 521,579.5C 519.153,507.828 519.153,436.161 521,364.5C 527.605,314.909 552.772,278.076 596.5,254C 614.99,243.948 634.656,237.281 655.5,234C 678.718,231.909 701.385,227.242 723.5,220C 741.505,212.659 756.671,201.492 769,186.5C 761.743,199.766 751.577,210.6 738.5,219C 728.512,224.161 718.178,228.494 707.5,232C 687.167,237 666.833,242 646.5,247C 598.782,259.425 565.282,288.258 546,333.5C 544.146,337.708 543.146,342.041 543,346.5C 564,325.577 588.5,310.077 616.5,300C 609.895,296.867 604.228,292.534 599.5,287C 607.833,286.667 616.167,286.333 624.5,286C 615.635,283.26 606.635,281.094 597.5,279.5C 612.265,266.698 625.765,268.031 638,283.5C 640.034,286.706 641.867,290.04 643.5,293.5C 656.12,293.71 668.786,293.71 681.5,293.5C 681.5,298.833 681.5,304.167 681.5,309.5C 689.5,309.5 697.5,309.5 705.5,309.5C 705.5,315.5 705.5,321.5 705.5,327.5C 713.507,327.334 721.507,327.5 729.5,328C 730.081,328.893 730.415,329.893 730.5,331C 730.26,405.282 729.927,479.782 729.5,554.5C 665.561,541.54 603.228,546.873 542.5,570.5 Z M 654.5,306.5 C 658.833,306.5 663.167,306.5 667.5,306.5C 667.833,368.504 667.5,430.504 666.5,492.5C 615.879,497.414 572.046,517.081 535,551.5C 534.333,495.5 534.333,439.5 535,383.5C 562.154,338.183 601.987,312.517 654.5,306.5 Z M 563.5,544.5 C 578.27,533.109 594.603,524.276 612.5,518C 634.856,510.161 657.856,505.661 681.5,504.5C 681.5,443.833 681.5,383.167 681.5,322.5C 684.833,322.5 688.167,322.5 691.5,322.5C 692.273,384.499 692.44,446.499 692,508.5C 646.393,510.775 603.56,522.775 563.5,544.5 Z M 563.5,544.5 C 563.027,545.906 562.027,546.573 560.5,546.5C 560.973,545.094 561.973,544.427 563.5,544.5 Z"/></g>
<g><path  fill="#000000" d="M 630.5,189.5 C 631.326,209.159 622.826,223.492 605,232.5C 608.591,224.98 611.925,217.314 615,209.5C 607.15,215.526 601.483,223.192 598,232.5C 593.877,206.796 604.71,192.463 630.5,189.5 Z"/></g>
<g><path fill="#000000" d="M 756.5,215.5 C 773.908,213.714 788.242,219.381 799.5,232.5C 793.912,237.54 787.245,240.373 779.5,241C 764.864,243.009 752.198,239.009 741.5,229C 741.833,228.667 742.167,228.333 742.5,228C 751.85,227.568 761.184,226.901 770.5,226C 760.585,224.281 750.585,223.115 740.5,222.5C 745.581,219.37 750.914,217.037 756.5,215.5 Z"/></g>
<g><path  fill="#000000" d="M 525.5,237.5 C 539.506,241.673 549.673,250.34 556,263.5C 557.213,266.768 557.546,270.101 557,273.5C 552.2,267.698 547.033,262.198 541.5,257C 540.833,256.333 540.167,256.333 539.5,257C 543.833,264 548.167,271 552.5,278C 543.937,277.464 537.104,273.63 532,266.5C 526.843,257.579 524.676,247.913 525.5,237.5 Z"/></g>
<g><path fill="#000000" d="M 715.5,239.5 C 739.34,236.981 754.674,247.315 761.5,270.5C 745.146,271.77 731.313,266.437 720,254.5C 718.833,252.167 717.667,249.833 716.5,247.5C 716.833,247.167 717.167,246.833 717.5,246.5C 725.049,250.285 732.716,253.452 740.5,256C 732.481,249.993 724.148,244.493 715.5,239.5 Z"/></g>
<g><path  fill="#000000" d="M 656.5,254.5 C 668.298,254.235 677.965,258.568 685.5,267.5C 680.768,272.863 674.768,275.53 667.5,275.5C 659.178,275.172 651.512,272.838 644.5,268.5C 643.479,267.998 643.312,267.332 644,266.5C 645.117,266.665 646.284,266.998 647.5,267.5C 653.622,266.998 659.622,266.165 665.5,265C 657.877,263.422 650.21,262.089 642.5,261C 646.698,257.632 651.364,255.466 656.5,254.5 Z"/></g>
<g><path  fill="#000000" d="M 433.5,259.5 C 435.42,267.42 440.42,272.42 448.5,274.5C 440.13,276.037 435.297,281.037 434,289.5C 432.278,281.444 427.444,276.277 419.5,274C 427.392,272.274 432.059,267.441 433.5,259.5 Z"/></g>
<g><path  fill="#000000" d="M 416.5,308.5 C 418.65,314.148 422.65,317.981 428.5,320C 421.592,321.244 417.759,325.411 417,332.5C 415.5,325.667 411.333,321.5 404.5,320C 410.553,318.169 414.553,314.335 416.5,308.5 Z"/></g>
<g><path  fill="#000000" d="M 414.5,346.5 C 417.58,356.748 424.247,363.581 434.5,367C 423.539,369.627 417.039,376.46 415,387.5C 413.276,376.109 406.776,369.276 395.5,367C 406.501,364.499 412.834,357.666 414.5,346.5 Z"/></g>
<g><path fill="#000000" d="M 457.5,354.5 C 475.073,354.045 491.407,358.212 506.5,367C 510.092,369.921 512.925,373.421 515,377.5C 513.782,437.879 511.782,498.546 509,559.5C 508.586,559.957 508.086,560.291 507.5,560.5C 493.683,548.516 480.683,535.683 468.5,522C 474.718,523.273 480.384,525.94 485.5,530C 492,535.167 497.833,541 503,547.5C 498.133,493.161 492.799,438.827 487,384.5C 481.367,370.202 471.201,360.702 456.5,356C 457.056,355.617 457.389,355.117 457.5,354.5 Z"/></g>
<g><path  fill="#000000" d="M 627.5,369.5 C 633.842,369.334 640.175,369.5 646.5,370C 625.209,371.739 604.876,377.072 585.5,386C 571.621,392.768 558.287,399.601 545.5,406.5C 568.432,384.518 595.765,372.185 627.5,369.5 Z"/></g>
<g><path  fill="#000000" d="M 304.5,422.5 C 304.805,427.221 305.971,431.554 308,435.5C 304.111,432.046 300.944,428.046 298.5,423.5C 298.167,423.667 297.833,423.833 297.5,424C 298.176,428.401 299.176,432.734 300.5,437C 299.004,437.507 297.837,437.007 297,435.5C 291.056,424.861 291.056,414.194 297,403.5C 305.231,393.201 315.731,389.701 328.5,393C 318.055,396.539 312.721,403.872 312.5,415C 312.704,419.913 313.871,424.413 316,428.5C 312.028,426.678 308.195,424.678 304.5,422.5 Z"/></g>
<g><path  fill="#000000" d="M 632.5,414.5 C 638.842,414.334 645.175,414.5 651.5,415C 630.209,416.739 609.876,422.072 590.5,431C 576.621,437.768 563.287,444.601 550.5,451.5C 573.432,429.518 600.765,417.185 632.5,414.5 Z"/></g>
<g><path  fill="#000000" d="M 631.5,464.5 C 637.842,464.334 644.175,464.5 650.5,465C 629.209,466.739 608.876,472.072 589.5,481C 575.621,487.768 562.287,494.601 549.5,501.5C 572.432,479.518 599.765,467.185 631.5,464.5 Z"/></g>
<g><path  fill="#000000" d="M 591.5,542.5 C 589.208,544.267 586.542,545.267 583.5,545.5C 585.792,543.733 588.458,542.733 591.5,542.5 Z"/></g>
<g><path  fill="#000000" d="M 583.5,545.5 C 582.22,546.931 580.553,547.598 578.5,547.5C 579.78,546.069 581.447,545.402 583.5,545.5 Z"/></g>
<g><path  fill="#000000" d="M 576.5,548.5 C 576.842,547.662 577.508,547.328 578.5,547.5C 578.158,548.338 577.492,548.672 576.5,548.5 Z"/></g>
<g><path  fill="#000000" d="M 576.5,548.5 C 576.103,549.525 575.437,549.692 574.5,549C 575.094,548.536 575.761,548.369 576.5,548.5 Z"/></g>
<g><path  fill="#000000" d="M 542.5,570.5 C 542.103,571.525 541.437,571.692 540.5,571C 541.094,570.536 541.761,570.369 542.5,570.5 Z"/></g>
<g><path  fill="#000000" d="M 681.5,578.5 C 682.833,579.167 682.833,579.167 681.5,578.5 Z"/></g>
<g><path  fill="#000000" d="M 214.5,669.5 C 224.749,669.181 234.916,669.514 245,670.5C 254.607,697.322 264.607,723.988 275,750.5C 285,723.833 295,697.167 305,670.5C 314.81,670.137 324.977,669.804 335.5,669.5C 335.5,671.167 335.5,672.833 335.5,674.5C 330.35,674.762 325.516,676.095 321,678.5C 319.455,683.047 319.121,687.713 320,692.5C 323.459,717.586 327.459,742.586 332,767.5C 334.072,773.268 338.239,776.268 344.5,776.5C 345.429,777.689 345.762,779.022 345.5,780.5C 330.588,780.176 315.755,780.509 301,781.5C 299.731,780.095 299.231,778.429 299.5,776.5C 309.012,776.654 314.012,771.987 314.5,762.5C 311.868,738.708 308.368,715.042 304,691.5C 293.284,718.31 282.95,745.31 273,772.5C 272.145,775.601 270.645,778.268 268.5,780.5C 258.227,750.621 247.393,720.955 236,691.5C 230.986,715.594 228.319,739.928 228,764.5C 229.79,772.784 234.957,776.784 243.5,776.5C 243.769,778.429 243.269,780.095 242,781.5C 229.246,780.511 216.413,780.178 203.5,780.5C 203.5,779.167 203.5,777.833 203.5,776.5C 211.836,776 217.003,771.667 219,763.5C 223.484,737.262 227.317,710.928 230.5,684.5C 230.352,681.37 229.018,678.87 226.5,677C 222.916,675.927 219.25,675.26 215.5,675C 214.594,673.301 214.261,671.467 214.5,669.5 Z"/></g>
<g><path  fill="#000000" d="M 390.5,678.5 C 423.255,675.785 444.088,690.118 453,721.5C 456.053,751.243 443.553,771.076 415.5,781C 392.573,786.314 373.406,780.147 358,762.5C 345.807,743.907 344.474,724.573 354,704.5C 362.802,691.024 374.969,682.357 390.5,678.5 Z M 397.5,683.5 C 414.92,684.084 426.086,692.751 431,709.5C 437.026,729.952 434.693,749.286 424,767.5C 413.493,777.726 401.326,780.226 387.5,775C 378.671,769.847 372.837,762.347 370,752.5C 367.083,739.245 366.75,725.911 369,712.5C 372.081,696.254 381.581,686.587 397.5,683.5 Z"/></g>
<g><path fill="#000000" d="M 509.5,678.5 C 539.695,675.66 559.861,688.327 570,716.5C 575.333,744.662 565.499,765.495 540.5,779C 519.213,786.84 499.546,784.007 481.5,770.5C 465.019,753.22 460.852,733.22 469,710.5C 477.085,692.908 490.585,682.242 509.5,678.5 Z M 510.5,684.5 C 533.975,683.134 547.475,694.134 551,717.5C 551.667,726.5 551.667,735.5 551,744.5C 545.325,773.919 528.491,783.419 500.5,773C 491.27,765.377 486.104,755.544 485,743.5C 483.206,729.38 484.872,715.713 490,702.5C 494.232,693.429 501.065,687.429 510.5,684.5 Z"/></g>
<g><path fill="#000000" d="M 703.5,678.5 C 712.993,678.064 717.66,682.731 717.5,692.5C 716.055,705.083 709.888,714.416 699,720.5C 698.5,720.333 698,720.167 697.5,720C 704.401,714.033 707.901,706.533 708,697.5C 703.33,698.711 699.997,697.045 698,692.5C 696.268,686.314 698.101,681.647 703.5,678.5 Z"/></g>
<g><path  fill="#000000" d="M 755.5,678.5 C 766.719,677.596 777.219,679.93 787,685.5C 789.487,684.346 791.321,682.513 792.5,680C 793.448,679.517 794.448,679.351 795.5,679.5C 795.5,691.167 795.5,702.833 795.5,714.5C 794.167,714.5 792.833,714.5 791.5,714.5C 789.715,693.543 778.382,683.376 757.5,684C 748.169,686.828 744.669,692.994 747,702.5C 748.061,705.562 749.894,708.062 752.5,710C 763.206,715.904 774.206,721.237 785.5,726C 801.184,735.719 805.684,749.219 799,766.5C 790.165,779.164 777.999,784.664 762.5,783C 755.343,781.836 748.509,779.67 742,776.5C 739.047,777.951 736.213,779.618 733.5,781.5C 732.135,768.536 731.468,755.536 731.5,742.5C 732.833,742.5 734.167,742.5 735.5,742.5C 736.7,763.028 747.366,775.028 767.5,778.5C 780.449,778.049 788.115,771.549 790.5,759C 789.643,753.284 786.976,748.617 782.5,745C 769.554,739.194 756.888,732.861 744.5,726C 730.873,711.297 731.206,696.964 745.5,683C 748.815,681.17 752.149,679.67 755.5,678.5 Z"/></g>
<g><path  fill="#000000" d="M 579.5,679.5 C 588.746,680.066 597.912,680.066 607,679.5C 626.428,703.351 646.095,727.018 666,750.5C 666.667,736.167 666.667,721.833 666,707.5C 665.697,703.106 665.03,698.773 664,694.5C 663.31,691.804 661.81,689.637 659.5,688C 655.859,686.731 652.192,685.564 648.5,684.5C 647.548,682.955 647.215,681.288 647.5,679.5C 661.167,680.833 674.833,680.833 688.5,679.5C 688.5,681.5 688.5,683.5 688.5,685.5C 678.079,684.979 672.912,689.979 673,700.5C 672.144,727.359 671.477,754.025 671,780.5C 670.586,780.957 670.086,781.291 669.5,781.5C 646.82,753.503 623.653,725.837 600,698.5C 599.055,720.542 599.389,742.542 601,764.5C 603.312,773.404 609.145,777.404 618.5,776.5C 618.5,777.833 618.5,779.167 618.5,780.5C 604.833,780.5 591.167,780.5 577.5,780.5C 577.5,779.167 577.5,777.833 577.5,776.5C 587.422,776.412 592.588,771.412 593,761.5C 593.667,738.5 593.667,715.5 593,692.5C 590.201,687.176 585.701,684.51 579.5,684.5C 579.5,682.833 579.5,681.167 579.5,679.5 Z"/></g>
<g><path  fill="#000000" d="M 247.5,801.5 C 259.505,801.333 271.505,801.5 283.5,802C 293.838,804.522 298.338,811.022 297,821.5C 294.685,827.083 290.518,830.416 284.5,831.5C 299.911,835.33 305.078,844.663 300,859.5C 294.946,865.524 288.446,868.691 280.5,869C 269.505,869.5 258.505,869.667 247.5,869.5C 247.5,868.5 247.5,867.5 247.5,866.5C 250.97,867.125 253.804,866.125 256,863.5C 256.667,844.833 256.667,826.167 256,807.5C 253.804,804.875 250.97,803.875 247.5,804.5C 247.5,803.5 247.5,802.5 247.5,801.5 Z M 266.5,804.5 C 283.231,802.391 289.398,809.391 285,825.5C 283.048,827.894 280.548,829.394 277.5,830C 273.848,830.499 270.182,830.665 266.5,830.5C 266.5,821.833 266.5,813.167 266.5,804.5 Z M 266.5,833.5 C 287.298,831.789 294.464,840.789 288,860.5C 284.666,864.575 280.333,866.575 275,866.5C 271.992,866.254 269.326,865.254 267,863.5C 266.5,853.506 266.334,843.506 266.5,833.5 Z"/></g>
<g><path  fill="#000000" d="M 179.5,805.5 C 184.742,805.023 189.742,805.856 194.5,808C 195.357,808.689 196.023,809.522 196.5,810.5C 189.887,809.714 183.554,810.881 177.5,814C 168.316,824.703 169.983,833.37 182.5,840C 189.183,842.907 196.183,844.073 203.5,843.5C 218.277,842.242 232.944,840.408 247.5,838C 228.997,846.234 209.663,849.568 189.5,848C 175.343,846.456 167.009,838.789 164.5,825C 165.248,815.1 170.248,808.6 179.5,805.5 Z"/></g>
<g><path  fill="#000000" d="M 836.5,805.5 C 855.461,805.75 862.628,815.084 858,833.5C 852.631,841.517 845.131,846.35 835.5,848C 814.9,849.678 795.233,846.178 776.5,837.5C 776.833,837.167 777.167,836.833 777.5,836.5C 795.42,842.251 813.753,844.418 832.5,843C 840.521,841.625 847.021,837.792 852,831.5C 854.217,818.647 848.717,811.647 835.5,810.5C 833.772,810.59 832.106,810.923 830.5,811.5C 829.167,810.5 829.167,809.5 830.5,808.5C 832.604,807.481 834.604,806.481 836.5,805.5 Z"/></g>
<g><path  fill="#000000" d="M 334.5,811.5 C 360.254,812.082 371.421,825.082 368,850.5C 364.649,861.183 357.483,867.683 346.5,870C 320.364,871.864 308.197,859.697 310,833.5C 313.676,820.983 321.843,813.649 334.5,811.5 Z M 337.5,814.5 C 349.69,815.522 356.524,822.189 358,834.5C 359.716,844.457 358.049,853.79 353,862.5C 347.344,867.193 340.844,868.693 333.5,867C 324.895,862.977 320.395,856.144 320,846.5C 318.957,838.09 320.291,830.09 324,822.5C 327.321,817.687 331.821,815.02 337.5,814.5 Z"/></g>
<g><path fill="#000000" d="M 402.5,811.5 C 427.77,813.265 438.27,826.598 434,851.5C 429.281,864.025 420.114,870.692 406.5,871.5C 380.356,867.512 371.19,852.845 379,827.5C 384.304,818.349 392.137,813.016 402.5,811.5 Z M 403.5,814.5 C 414.977,814.471 421.81,820.137 424,831.5C 426.497,841.527 425.497,851.194 421,860.5C 411.049,870.873 401.049,870.873 391,860.5C 385.421,848.315 385.087,835.982 390,823.5C 393.342,818.64 397.842,815.64 403.5,814.5 Z"/></g>
<g><path  fill="#000000" d="M 513.5,811.5 C 519.716,811.179 525.55,812.513 531,815.5C 532.626,814.711 534.126,813.711 535.5,812.5C 535.833,815.667 536.167,818.833 536.5,822C 536.63,825.684 536.13,829.184 535,832.5C 534.15,825.801 530.983,820.468 525.5,816.5C 520.908,814.106 516.242,813.939 511.5,816C 507.5,820.667 507.5,825.333 511.5,830C 518.167,833 524.833,836 531.5,839C 542.473,847.57 543.14,856.904 533.5,867C 524.077,871.845 514.91,871.345 506,865.5C 504.647,866.685 503.48,868.019 502.5,869.5C 501.167,862.5 501.167,855.5 502.5,848.5C 503.833,853.502 505.999,858.168 509,862.5C 514.812,867.456 521.312,868.623 528.5,866C 535.15,860.291 535.15,854.624 528.5,849C 520.857,845.845 513.523,842.178 506.5,838C 498.541,826.383 500.875,817.55 513.5,811.5 Z"/></g>
<g><path  fill="#000000" d="M 544.5,811.5 C 553.219,813.069 562.052,813.735 571,813.5C 577.833,813.333 584.667,813.167 591.5,813C 593.025,811.991 594.692,811.491 596.5,811.5C 596.83,818.532 596.497,825.532 595.5,832.5C 594.177,819.846 587.177,814.179 574.5,815.5C 574.333,830.837 574.5,846.17 575,861.5C 575.273,863.329 576.107,864.829 577.5,866C 579.895,866.681 582.228,867.515 584.5,868.5C 575.167,869.833 565.833,869.833 556.5,868.5C 556.709,867.914 557.043,867.414 557.5,867C 559.891,866.713 562.224,866.213 564.5,865.5C 565.251,864.624 565.751,863.624 566,862.5C 566.824,846.926 566.657,831.426 565.5,816C 553.113,814.555 546.78,820.055 546.5,832.5C 545.5,832.5 544.5,832.5 543.5,832.5C 544.341,825.535 544.674,818.535 544.5,811.5 Z"/></g>
<g><path  fill="#000000" d="M 625.5,811.5 C 651.174,811.34 662.674,824.006 660,849.5C 655.187,863.47 645.354,870.804 630.5,871.5C 615.793,870.747 606.293,863.414 602,849.5C 598.97,829.861 606.803,817.194 625.5,811.5 Z M 627.5,814.5 C 639.073,813.906 646.24,819.239 649,830.5C 651.542,840.879 650.542,850.879 646,860.5C 638.657,868.021 630.157,869.521 620.5,865C 615.715,860.931 612.881,855.764 612,849.5C 609.164,837.335 611.997,826.835 620.5,818C 622.713,816.384 625.047,815.217 627.5,814.5 Z"/></g>
<g><path  fill="#000000" d="M 679.5,812.5 C 688.303,812.027 696.97,812.861 705.5,815C 713.23,820.945 714.23,827.945 708.5,836C 705.382,837.893 702.049,839.226 698.5,840C 701.295,841.793 703.795,843.96 706,846.5C 707.376,853.177 709.21,859.677 711.5,866C 716.959,866.037 719.626,863.204 719.5,857.5C 720.577,868.906 715.577,872.739 704.5,869C 702.348,866.531 700.848,863.698 700,860.5C 699.643,855.022 698.643,849.688 697,844.5C 696.097,843.299 694.931,842.465 693.5,842C 690.11,841.754 686.777,841.254 683.5,840.5C 682.335,848.145 682.169,855.812 683,863.5C 685.196,866.125 688.03,867.125 691.5,866.5C 691.5,867.5 691.5,868.5 691.5,869.5C 682.808,869.831 674.141,869.498 665.5,868.5C 668.178,867.445 670.678,866.112 673,864.5C 673.339,861.964 673.839,859.464 674.5,857C 673.881,850.091 673.881,842.924 674.5,835.5C 674.498,829.453 673.998,823.453 673,817.5C 670.426,815.998 667.593,814.998 664.5,814.5C 669.651,813.833 674.651,813.166 679.5,812.5 Z M 682.5,815.5 C 688.072,814.99 693.405,815.823 698.5,818C 703.867,824.591 703.534,830.924 697.5,837C 692.628,838.388 687.628,838.888 682.5,838.5C 682.5,830.833 682.5,823.167 682.5,815.5 Z"/></g>
<g><path style="opacity:0.892" fill="#000000" d="M 757.5,812.5 C 760.5,812.5 763.5,812.5 766.5,812.5C 766.195,817.762 766.529,822.928 767.5,828C 767,828.5 766.5,829 766,829.5C 764.581,825.244 762.415,821.411 759.5,818C 752.691,815.845 745.691,815.012 738.5,815.5C 738.5,823.167 738.5,830.833 738.5,838.5C 742.605,838.766 746.605,838.266 750.5,837C 752.832,833.847 754.499,830.347 755.5,826.5C 756.498,835.141 756.831,843.808 756.5,852.5C 755.448,852.649 754.448,852.483 753.5,852C 754.296,845.589 751.296,841.756 744.5,840.5C 742.678,840.463 740.678,840.796 738.5,841.5C 738.185,849.42 738.518,857.253 739.5,865C 747.32,867.181 754.986,866.681 762.5,863.5C 765.786,858.989 768.119,853.989 769.5,848.5C 770.568,855.493 770.568,862.493 769.5,869.5C 752.425,868.989 736.425,868.989 721.5,869.5C 721.5,868.5 721.5,867.5 721.5,866.5C 724.365,866.945 726.865,866.278 729,864.5C 730.982,849.158 730.982,833.825 729,818.5C 726.913,816.517 724.413,815.183 721.5,814.5C 733.66,813.833 745.66,813.167 757.5,812.5 Z"/></g>
<g><path style="opacity:0.914" fill="#000000" d="M 439.5,813.5 C 448.192,813.169 456.859,813.502 465.5,814.5C 462.478,814.928 459.978,816.261 458,818.5C 457.815,825.747 457.315,832.913 456.5,840C 456.833,840.167 457.167,840.333 457.5,840.5C 463.85,834.316 470.35,828.316 477,822.5C 478.019,820.731 478.186,819.064 477.5,817.5C 475.237,816.35 472.904,815.35 470.5,814.5C 478.472,813.502 486.472,813.169 494.5,813.5C 494.5,814.5 494.5,815.5 494.5,816.5C 490.781,816.002 487.447,816.836 484.5,819C 479.167,824.333 473.833,829.667 468.5,835C 474.458,843.748 480.291,852.581 486,861.5C 488.819,865.493 492.653,867.16 497.5,866.5C 497.5,867.5 497.5,868.5 497.5,869.5C 487.887,868.433 478.554,868.267 469.5,869C 468.167,868.333 468.167,867.667 469.5,867C 471.833,866.667 474.167,866.333 476.5,866C 477.022,865.439 477.355,864.772 477.5,864C 472.881,855.929 467.881,848.096 462.5,840.5C 460.247,841.253 458.413,842.586 457,844.5C 456.03,851.495 456.53,858.328 458.5,865C 461.014,866.252 463.68,866.752 466.5,866.5C 466.5,867.5 466.5,868.5 466.5,869.5C 457.808,869.831 449.141,869.498 440.5,868.5C 443.138,867.35 445.638,866.016 448,864.5C 448.667,849.167 448.667,833.833 448,818.5C 445.13,816.665 442.297,814.998 439.5,813.5 Z"/></g>
<g><path style="opacity:0.857" fill="#000000" d="M 354.5,886.5 C 359.366,885.679 362.199,887.679 363,892.5C 383.794,886.958 404.96,885.125 426.5,887C 431.137,887.306 435.637,888.14 440,889.5C 465.669,883.139 489.836,886.806 512.5,900.5C 535.065,887.251 559.231,883.251 585,888.5C 610.788,884.851 636.288,886.184 661.5,892.5C 662.726,887.053 665.726,885.719 670.5,888.5C 673.316,893.209 671.982,896.209 666.5,897.5C 655.887,893.675 644.887,891.175 633.5,890C 619.098,887.713 604.765,888.046 590.5,891C 594.777,892.09 598.777,893.757 602.5,896C 614.486,895.576 626.152,897.243 637.5,901C 642.45,902.722 646.616,905.555 650,909.5C 650.677,911.982 649.844,913.815 647.5,915C 640.22,916.035 633.22,915.035 626.5,912C 618.676,908.255 611.009,904.255 603.5,900C 597.796,899.47 592.129,899.803 586.5,901C 593.177,901.664 598.177,904.83 601.5,910.5C 600.456,914.379 598.123,917.212 594.5,919C 589.726,921.276 584.726,922.776 579.5,923.5C 579.559,927.548 577.892,930.715 574.5,933C 563.541,937.688 552.207,938.688 540.5,936C 534.46,934.092 528.46,932.425 522.5,931C 520.167,932.667 517.833,934.333 515.5,936C 518.167,938 520.833,940 523.5,942C 522.975,942.692 522.308,943.192 521.5,943.5C 518.265,942.267 515.265,940.601 512.5,938.5C 509.206,941.155 505.539,942.655 501.5,943C 501.167,942.667 500.833,942.333 500.5,942C 503.167,940 505.833,938 508.5,936C 506.495,933.155 503.829,931.322 500.5,930.5C 485.31,937.314 469.643,938.814 453.5,935C 447.856,933.196 445.189,929.362 445.5,923.5C 437.64,922.718 430.806,919.718 425,914.5C 422.965,910.698 423.798,907.531 427.5,905C 431.363,903.268 435.363,901.934 439.5,901C 433.539,899.761 427.539,899.427 421.5,900C 411.115,906.359 400.115,911.359 388.5,915C 384.5,915.667 380.5,915.667 376.5,915C 374.604,913.192 374.104,911.025 375,908.5C 382.843,901.767 392.01,897.933 402.5,897C 408.833,896.667 415.167,896.333 421.5,896C 425.048,894.059 428.714,892.393 432.5,891C 407.005,887.452 381.838,889.285 357,896.5C 352.309,895.793 350.643,893.126 352,888.5C 352.995,887.934 353.828,887.267 354.5,886.5 Z M 558.5,888.5 C 564.545,888.428 570.545,888.928 576.5,890C 559.441,893.241 543.441,899.241 528.5,908C 523.972,907.855 519.972,906.188 516.5,903C 529.465,894.846 543.465,890.013 558.5,888.5 Z M 450.5,889.5 C 471.297,886.958 490.297,891.458 507.5,903C 504.5,905.167 501.5,907.333 498.5,909.5C 482.997,900.276 466.33,894.109 448.5,891C 449.416,890.722 450.082,890.222 450.5,889.5 Z M 437.5,892.5 C 454.995,894.386 471.661,899.219 487.5,907C 495.81,910.537 495.477,913.037 486.5,914.5C 468.002,904.791 448.336,898.958 427.5,897C 431.042,895.725 434.375,894.225 437.5,892.5 Z M 579.5,892.5 C 585.816,892.659 591.816,894.159 597.5,897C 577.24,898.644 558.24,904.311 540.5,914C 537.039,914.874 534.039,914.04 531.5,911.5C 537.186,906.987 543.52,903.487 550.5,901C 560.082,897.412 569.749,894.579 579.5,892.5 Z M 404.5,899.5 C 407.187,899.336 409.854,899.503 412.5,900C 404.563,904.802 396.23,908.802 387.5,912C 384.183,912.498 380.85,912.665 377.5,912.5C 378.637,907.894 381.637,905.06 386.5,904C 392.553,902.153 398.553,900.653 404.5,899.5 Z M 610.5,900.5 C 622.032,898.983 633.032,901.149 643.5,907C 644.833,908.333 646.167,909.667 647.5,911C 644.367,912.57 641.033,912.903 637.5,912C 628.468,908.148 619.468,904.315 610.5,900.5 Z M 579.5,902.5 C 585.925,902.895 591.758,904.895 597,908.5C 597.667,910.167 597.667,911.833 597,913.5C 591.568,917.866 585.401,920.032 578.5,920C 576.31,915.111 572.643,912.778 567.5,913C 570.695,914.695 573.028,917.195 574.5,920.5C 563.609,921.731 552.943,920.564 542.5,917C 554.187,910.276 566.521,905.442 579.5,902.5 Z M 437.5,903.5 C 453.445,903.487 468.112,907.82 481.5,916.5C 471.53,920.217 461.197,921.884 450.5,921.5C 451.137,917.355 453.471,914.522 457.5,913C 452.391,912.729 448.725,915.062 446.5,920C 439.701,920.122 433.701,917.955 428.5,913.5C 427.19,910.246 428.19,907.746 431.5,906C 433.723,905.434 435.723,904.6 437.5,903.5 Z M 511.5,905.5 C 514.975,907.407 518.309,909.574 521.5,912C 518.42,914.29 515.253,916.457 512,918.5C 508.747,916.457 505.58,914.29 502.5,912C 505.921,910.301 508.921,908.135 511.5,905.5 Z M 497.5,914.5 C 501.441,916.14 505.108,918.306 508.5,921C 505.93,923.459 502.93,924.459 499.5,924C 496.833,922 494.167,920 491.5,918C 493.727,917.059 495.727,915.892 497.5,914.5 Z M 525.5,914.5 C 527.812,915.32 530.146,916.153 532.5,917C 533.833,917.667 533.833,918.333 532.5,919C 529.399,920.966 526.232,922.8 523,924.5C 520.61,923.722 518.443,922.555 516.5,921C 519.567,918.812 522.567,916.645 525.5,914.5 Z M 484.5,919.5 C 489.159,921.301 493.492,923.801 497.5,927C 483.711,933.924 469.378,935.591 454.5,932C 451.211,930.59 449.544,928.09 449.5,924.5C 461.635,925.147 473.301,923.481 484.5,919.5 Z M 537.5,919.5 C 549.918,922.969 562.585,924.636 575.5,924.5C 574.452,928.719 571.785,931.553 567.5,933C 553.484,935.776 540.151,933.776 527.5,927C 530.734,924.252 534.068,921.752 537.5,919.5 Z M 511.5,923.5 C 514.274,924.723 516.941,926.223 519.5,928C 516.739,930.221 513.739,931.554 510.5,932C 509.016,930.426 507.349,929.093 505.5,928C 507.389,926.236 509.389,924.736 511.5,923.5 Z"/></g>
</svg>
